                    <svg xmlns="http://www.w3.org/2000/svg" xmlns:xlink="http://www.w3.org/1999/xlink" xml:space="preserve" version="1.1" viewBox="0 0 50 50.75" x="0px" y="0px" fill-rule="evenodd" clip-rule="evenodd">
                        <g><path class="fil0" d="M103 12l640 0c51,0 92,41 92,91l0 640c0,51 -41,92 -92,92l-640 0c-50,0 -91,-41 -91,-92l0 -640c0,-50 41,-91 91,-91zm78 106l242 242 243 -242c42,-42 105,21 63,63l-242 242 242 243c42,42 -21,105 -63,63l-243 -242 -242 242c-42,42 -105,-21 -63,-63l242 -243 -242 -242c-42,-42 21,-105 63,-63zm562 -86l-640 0c-39,0 -71,32 -71,71l0 640c0,40 32,72 71,72l640 0c40,0 72,-32 72,-72l0 -640c0,-39 -32,-71 -72,-71z"/></g></svg>